HIERARCHY
ROOT SpineBase
{
  OFFSET 0.000000 0.000000 0.000000
  CHANNELS 6 Xposition Yposition Zposition Zrotation Xrotation Yrotation
  JOINT SpineMid
  {
    OFFSET 0.000000 31.190639 0.000000
    CHANNELS 3 Zrotation Xrotation Yrotation
    JOINT SpineShoulder
    {
      OFFSET -0.041427 23.104589 -0.799745
      CHANNELS 3 Zrotation Xrotation Yrotation
      JOINT Neck
      {
        OFFSET -0.022324 7.626416 -0.602439
        CHANNELS 3 Zrotation Xrotation Yrotation
        JOINT Head
        {
          OFFSET -1.835662 14.738479 -2.660828
          CHANNELS 3 Zrotation Xrotation Yrotation
          End Site
          {
            OFFSET 0 0 0
          }
        }
      }
      JOINT ShoulderLeft
      {
        OFFSET -19.502797 -3.746755 3.219541
        CHANNELS 3 Zrotation Xrotation Yrotation
        JOINT ElbowLeft
        {
          OFFSET -2.780931 -27.041876 1.165125
          CHANNELS 3 Zrotation Xrotation Yrotation
          JOINT WristLeft
          {
            OFFSET 0.905439 -20.660730 -8.485195
            CHANNELS 3 Zrotation Xrotation Yrotation
            JOINT HandLeft
            {
              OFFSET 2.282497 -3.858814 -0.960679
              CHANNELS 3 Zrotation Xrotation Yrotation
              JOINT HandTipLeft
              {
                OFFSET 1.361696 -7.786313 -0.502547
                CHANNELS 3 Zrotation Xrotation Yrotation
                End Site
                {
                  OFFSET 0 0 0
                }
              }
              JOINT ThumbLeft
              {
                OFFSET -4.220796 -1.325160 -0.576135
                CHANNELS 3 Zrotation Xrotation Yrotation
                End Site
                {
                  OFFSET 0 0 0
                }
              }
            }
          }
        }
      }
      JOINT ShoulderRight
      {
        OFFSET 16.893489 -3.269603 -7.129125
        CHANNELS 3 Zrotation Xrotation Yrotation
        JOINT ElbowRight
        {
          OFFSET 5.333989 -24.260076 -1.016855
          CHANNELS 3 Zrotation Xrotation Yrotation
          JOINT WristRight
          {
            OFFSET -2.906636 -21.196134 -7.008577
            CHANNELS 3 Zrotation Xrotation Yrotation
            JOINT HandRight
            {
              OFFSET -2.846740 -6.134090 -0.400550
              CHANNELS 3 Zrotation Xrotation Yrotation
              JOINT HandTipRight
              {
                OFFSET -0.744715 -7.136914 -0.056516
                CHANNELS 3 Zrotation Xrotation Yrotation
                End Site
                {
                  OFFSET 0 0 0
                }
              }
              JOINT ThumbRight
              {
                OFFSET 2.942164 -0.946131 -2.067317
                CHANNELS 3 Zrotation Xrotation Yrotation
                End Site
                {
                  OFFSET 0 0 0
                }
              }
            }
          }
        }
      }
    }
  }
  JOINT HipLeft
  {
    OFFSET -8.264030 0.578088 -1.882816
    CHANNELS 3 Zrotation Xrotation Yrotation
    JOINT KneeLeft
    {
      OFFSET 0.172729 -32.501553 5.623626
      CHANNELS 3 Zrotation Xrotation Yrotation
      JOINT AnkleLeft
      {
        OFFSET -1.098840 -32.377458 6.903795
        CHANNELS 3 Zrotation Xrotation Yrotation
        JOINT FootLeft
        {
          OFFSET -1.049399 -8.446500 -6.891588
          CHANNELS 3 Zrotation Xrotation Yrotation
          End Site
          {
            OFFSET 0 0 0
          }
        }
      }
    }
  }
  JOINT HipRight
  {
    OFFSET 8.213600 0.996524 -5.363550
    CHANNELS 3 Zrotation Xrotation Yrotation
    JOINT KneeRight
    {
      OFFSET 6.229538 -32.609891 5.352844
      CHANNELS 3 Zrotation Xrotation Yrotation
      JOINT AnkleRight
      {
        OFFSET 2.791939 -31.726968 10.619484
        CHANNELS 3 Zrotation Xrotation Yrotation
        JOINT FootRight
        {
          OFFSET -3.196959 -4.566219 -13.730041
          CHANNELS 3 Zrotation Xrotation Yrotation
          End Site
          {
            OFFSET 0 0 0
          }
        }
      }
    }
  }
}
MOTION
Frames: 8
Frame Time: 0.033333
2.170857 73.936739 326.062366 0.408359 -0.223021 11.392152 -0.356267 0.299282 -11.390427 -0.000000 0.000000 0.000000 -0.000000 0.000000 0.000000 0.000000 0.000000 0.000000 -0.000000 0.000000 0.000000 0.311970 -0.771288 -0.160250 2.705833 -2.323443 -2.357555 -8.902524 4.027121 3.602758 0.000000 0.000000 0.000000 0.000000 0.000000 0.000000 -0.000000 0.000000 0.000000 1.163729 -0.348190 -0.334321 1.136911 0.860343 -0.071632 -0.005777 -1.432006 0.496223 0.000000 0.000000 0.000000 0.000000 0.000000 0.000000 -0.356267 0.299282 -11.390427 -0.000000 0.000000 0.000000 -0.249830 -2.115457 0.469018 0.000000 0.000000 0.000000 -0.356267 0.299282 -11.390427 -0.000000 0.000000 0.000000 -0.000000 0.000000 0.000000 0.000000 0.000000 0.000000
2.165728 73.929037 326.041394 0.475650 -0.260571 11.399941 -0.414770 0.349437 -11.397595 -0.000000 0.000000 0.000000 0.578832 -0.787306 0.010399 0.000000 0.000000 0.000000 -0.000000 0.000000 0.000000 0.360544 -0.802433 -0.181211 0.779503 -2.330233 -1.937240 -4.075935 3.177402 2.544323 0.000000 0.000000 0.000000 0.000000 0.000000 0.000000 -0.000000 0.000000 0.000000 1.238229 0.014180 -0.412131 2.000395 0.563327 -0.083014 -2.370255 -2.195062 0.645472 0.000000 0.000000 0.000000 0.000000 0.000000 0.000000 -0.414770 0.349437 -11.397595 -0.000000 0.000000 0.000000 -0.248388 -1.985892 0.451370 0.000000 0.000000 0.000000 -0.414770 0.349437 -11.397595 -0.000000 0.000000 0.000000 -0.000000 0.000000 0.000000 0.000000 0.000000 0.000000
2.162049 73.913648 326.026127 0.596161 -0.301891 11.393256 -0.524791 0.413693 -11.389791 -0.000000 0.000000 0.000000 0.651903 -1.008539 -0.002180 0.000000 0.000000 0.000000 -0.000000 0.000000 0.000000 -0.000000 0.000000 0.000000 1.486299 -3.518061 -2.405575 -2.818242 3.614262 2.686835 0.000000 0.000000 0.000000 0.000000 0.000000 0.000000 1.006734 -0.244316 -0.093596 0.200227 0.292088 -0.314053 2.592953 0.140617 0.070702 -2.238266 -1.978692 0.530866 0.000000 0.000000 0.000000 0.000000 0.000000 0.000000 -0.524791 0.413693 -11.389791 -0.000000 0.000000 0.000000 -0.095745 -1.995361 0.329022 0.000000 0.000000 0.000000 -0.524791 0.413693 -11.389791 -0.000000 0.000000 0.000000 -0.000000 0.000000 0.000000 0.000000 0.000000 0.000000
2.166664 73.866066 326.029879 0.729245 -0.400886 11.468189 0.042349 -0.151421 -11.438195 0.016525 -0.066314 0.036414 0.032042 -0.412142 -0.033472 0.000000 0.000000 0.000000 -2.053616 0.812446 -0.117225 1.204020 -1.117539 0.049832 0.461675 -2.497386 -2.104925 -0.192967 4.328897 2.263993 0.000000 0.000000 0.000000 0.000000 0.000000 0.000000 0.456780 0.305386 -0.187938 -0.159072 0.364172 -0.261745 3.133240 0.055237 0.049218 -2.212439 -3.445107 0.720396 0.000000 0.000000 0.000000 0.000000 0.000000 0.000000 -0.635008 0.537843 -11.462657 -0.000000 0.000000 0.000000 0.170504 -2.181229 0.137318 0.000000 0.000000 0.000000 -0.635008 0.537843 -11.462657 -0.000000 0.000000 0.000000 -0.000000 0.000000 0.000000 0.000000 0.000000 0.000000
2.128130 73.880390 326.056456 0.821485 -0.483651 11.603671 0.074743 -0.178482 -11.568351 0.001082 -0.039283 0.040826 0.105922 -0.377125 -0.013526 0.000000 0.000000 0.000000 -0.743932 -0.126024 0.024433 -0.186589 0.810000 -0.090033 -0.151711 -4.019040 -2.368005 2.283169 5.855782 2.316978 0.000000 0.000000 0.000000 0.000000 0.000000 0.000000 0.559481 0.293660 -0.226198 -0.363225 0.835953 -0.294623 3.703265 -0.850580 0.368620 -3.227685 -2.079994 0.407306 0.000000 0.000000 0.000000 0.000000 0.000000 0.000000 -0.981363 1.508057 -11.663625 0.443970 -0.795763 0.075581 0.393529 -2.503995 -0.001362 0.000000 0.000000 0.000000 -0.707459 0.638954 -11.596259 -0.000000 0.000000 0.000000 -0.000000 0.000000 0.000000 0.000000 0.000000 0.000000
2.043904 73.935751 326.044556 0.936486 -0.580426 11.600251 0.151822 -0.133995 -11.558130 -0.021172 0.056451 0.046633 -1.422504 -1.845413 -0.447962 0.000000 0.000000 0.000000 1.433510 -1.642026 0.286383 -0.484590 1.235833 -1.237985 -2.661185 -4.904423 -2.488595 2.704457 8.579570 3.333602 0.000000 0.000000 0.000000 0.000000 0.000000 0.000000 0.644735 -0.350900 -0.368776 -0.439818 1.516283 -0.232954 3.708555 -1.268563 0.605888 -1.951165 -1.745259 0.270949 0.000000 0.000000 0.000000 0.000000 0.000000 0.000000 -1.028940 2.135695 -11.664281 1.167785 -1.946559 0.267693 0.041923 -2.481680 -0.346017 0.000000 0.000000 0.000000 -0.800717 0.756809 -11.590219 -0.000000 0.000000 0.000000 0.306051 -0.078940 -0.868186 0.000000 0.000000 0.000000
1.935657 74.137917 326.056646 0.995811 -0.453412 11.581574 0.203274 0.020785 -11.538463 -0.061010 0.167663 0.046610 -2.302433 -1.586963 -0.536953 0.000000 0.000000 0.000000 5.541907 -3.166696 0.724930 -3.987239 1.690409 -1.735784 -3.973535 -2.245307 -0.792167 4.750376 6.814723 1.877215 0.000000 0.000000 0.000000 0.000000 0.000000 0.000000 0.444708 -0.346735 -0.275646 -0.401741 1.660899 -0.362522 4.808583 -1.796699 0.638871 -2.923914 -0.721458 0.208381 0.000000 0.000000 0.000000 0.000000 0.000000 0.000000 -1.485624 2.814013 -11.721511 2.289517 -2.933950 0.538227 -0.261413 -2.923877 -0.624312 0.000000 0.000000 0.000000 -0.884564 0.644034 -11.572662 -0.000000 0.000000 0.000000 0.359005 2.385942 -2.600101 0.000000 0.000000 0.000000
1.880146 74.460701 325.986952 1.024029 0.055849 11.566832 0.151321 0.292099 -11.531279 -0.106113 0.260803 0.039607 -0.043736 -0.177391 0.150488 0.000000 0.000000 0.000000 10.897750 -4.991686 1.475251 -8.471381 2.810572 -2.184770 -4.970726 -2.986006 -0.830904 4.237966 8.739902 2.458701 0.000000 0.000000 0.000000 0.000000 0.000000 0.000000 0.386388 -0.437996 -0.089400 -0.081841 1.575412 -0.677382 4.834001 -2.195762 0.691038 -2.580678 1.082686 0.062584 0.000000 0.000000 0.000000 0.000000 0.000000 0.000000 -1.533488 2.938703 -11.723391 2.308788 -3.831843 0.567558 0.038891 -7.734481 -0.160784 0.000000 0.000000 0.000000 -0.188180 0.890689 -11.294787 -0.513297 -1.763030 -0.304933 1.053841 0.457492 -3.397070 0.000000 0.000000 0.000000
